<svg width="135" height="40" viewBox="0 0 135 40" fill="none" xmlns="http://www.w3.org/2000/svg">
<path d="M124.249 0.00013H10.7566C10.3429 0.00013 9.9342 0.00013 9.5216 0.00213C9.17621 0.00413 8.83358 0.00994 8.48488 0.01483C7.72734 0.0227318 6.97157 0.0818063 6.22416 0.19154C5.4778 0.303663 4.75482 0.515046 4.07967 0.81854C3.40534 1.1246 2.7892 1.5223 2.25358 1.9972C1.71514 2.47077 1.26632 3.01815 0.924356 3.61829C0.581453 4.21724 0.343683 4.85907 0.219258 5.52161C0.0936495 6.18332 0.0260586 6.85265 0.0170916 7.52361C0.00662229 7.83021 0.00551669 8.13783 0 8.44447V31.5587C0.00551669 31.8692 0.00662229 32.17 0.0170916 32.4806C0.0260614 33.1516 0.0936522 33.8209 0.219258 34.4825C0.343339 35.1455 0.581124 35.7877 0.924356 36.3868C1.26616 36.985 1.71505 37.5302 2.25358 38.0011C2.78717 38.4781 3.40371 38.8761 4.07967 39.1798C4.75481 39.4841 5.47772 39.6968 6.22416 39.8106C6.9717 39.9195 7.72738 39.9786 8.48488 39.9874C8.83358 39.9942 9.17621 39.9981 9.5216 39.9981C9.93419 40.0001 10.343 40.0001 10.7566 40.0001H124.249C124.655 40.0001 125.067 40.0001 125.472 39.9981C125.816 39.9981 126.169 39.9942 126.512 39.9874C127.268 39.9791 128.023 39.92 128.769 39.8106C129.518 39.696 130.243 39.4834 130.921 39.1798C131.597 38.8759 132.213 38.478 132.746 38.0011C133.283 37.5284 133.733 36.9836 134.079 36.3868C134.42 35.7872 134.655 35.1451 134.777 34.4825C134.903 33.8208 134.973 33.1516 134.987 32.4806C134.991 32.17 134.991 31.8692 134.991 31.5587C135 31.1954 135 30.8341 135 30.4649V9.53626C135 9.17005 135 8.80677 134.991 8.44447C134.991 8.13783 134.991 7.83021 134.987 7.52357C134.973 6.85255 134.903 6.18337 134.777 5.52157C134.655 4.85941 134.419 4.21763 134.079 3.61825C133.383 2.41533 132.278 1.43616 130.921 0.81845C130.243 0.515697 129.518 0.30437 128.769 0.19145C128.023 0.0812328 127.269 0.0221378 126.512 0.01469C126.169 0.00981 125.816 0.00395 125.472 0.002C125.067 0 124.655 0 124.249 0V0.00013Z" fill="#A6A6A6"/>
<path d="M9.52707 39.1251C9.18335 39.1251 8.84792 39.1212 8.50689 39.1144C7.80042 39.1063 7.0956 39.0518 6.39821 38.9513C5.74792 38.8521 5.11798 38.6674 4.52914 38.4034C3.94571 38.1417 3.41356 37.7984 2.9531 37.3868C2.48598 36.9801 2.09708 36.5084 1.80181 35.9903C1.50328 35.4689 1.29669 34.91 1.18922 34.3331C1.07316 33.7132 1.01036 33.0864 1.00138 32.4581C0.994227 32.2472 0.984863 31.545 0.984863 31.545V8.44447C0.984863 8.44447 0.994836 7.75306 1.00144 7.54993C1.01004 6.92261 1.07247 6.29678 1.18818 5.67786C1.29585 5.09938 1.50261 4.53888 1.80129 4.01576C2.09547 3.49807 2.48222 3.02599 2.94653 2.61781C3.41032 2.20575 3.94416 1.86073 4.52859 1.59534C5.11607 1.33222 5.74483 1.14886 6.3938 1.0514C7.09348 0.949966 7.80074 0.895126 8.50967 0.88734L9.52763 0.87513H125.467L126.497 0.88783C127.199 0.895229 127.9 0.94958 128.593 1.05042C129.249 1.1491 129.884 1.33375 130.479 1.59827C131.649 2.13312 132.602 2.97929 133.203 4.0182C133.497 4.53771 133.701 5.09364 133.807 5.66712C133.924 6.29112 133.989 6.92187 134.003 7.55433C134.006 7.83753 134.006 8.14173 134.006 8.44447C134.015 8.81947 134.015 9.1764 134.015 9.53626V30.4649C134.015 30.8282 134.015 31.1827 134.006 31.5401C134.006 31.8653 134.006 32.1632 134.002 32.4698C133.989 33.091 133.924 33.7105 133.809 34.3233C133.704 34.9044 133.498 35.4676 133.2 35.9933C132.902 36.5057 132.516 36.9734 132.054 37.379C131.593 37.7928 131.06 38.1381 130.475 38.4015C129.883 38.6675 129.248 38.8529 128.593 38.9513C127.896 39.0523 127.191 39.1068 126.485 39.1144C126.154 39.1212 125.808 39.1251 125.472 39.1251L124.249 39.1271L9.52707 39.1251Z" fill="black"/>
<path d="M52.875 27.7028H48.1416L47.0049 31.0592H45L49.4834 18.6412H51.5664L56.0498 31.0592H54.0107L52.875 27.7028ZM48.6318 26.1539H52.3838L50.5342 20.7067H50.4825L48.6318 26.1539Z" fill="white"/>
<path d="M65.7325 26.5329C65.7325 29.3463 64.2266 31.1539 61.9541 31.1539C61.3785 31.1841 60.806 31.0515 60.3022 30.7713C59.7984 30.4912 59.3837 30.0748 59.1055 29.57H59.0625V34.0543H57.2041V22.0055H59.003V23.5114H59.0371C59.3281 23.0089 59.7498 22.5947 60.2575 22.3129C60.7651 22.031 61.3396 21.8921 61.92 21.9108C64.2178 21.9108 65.7325 23.7272 65.7325 26.5329ZM63.8223 26.5329C63.8223 24.6999 62.875 23.4948 61.4297 23.4948C60.0098 23.4948 59.0547 24.7252 59.0547 26.5329C59.0547 28.3571 60.0098 29.5788 61.4297 29.5788C62.875 29.5788 63.8223 28.3825 63.8223 26.5329Z" fill="white"/>
<path d="M75.6972 26.5329C75.6972 29.3463 74.1914 31.154 71.9189 31.154C71.3433 31.1841 70.7708 31.0515 70.267 30.7713C69.7632 30.4912 69.3485 30.0748 69.0703 29.57H69.0273V34.0543H67.1689V22.0055H68.9677V23.5114H69.0019C69.2928 23.0089 69.7146 22.5947 70.2222 22.3129C70.7298 22.031 71.3044 21.8921 71.8847 21.9108C74.1826 21.9108 75.6972 23.7272 75.6972 26.5329ZM73.7871 26.5329C73.7871 24.6999 72.8398 23.4948 71.3945 23.4948C69.9746 23.4948 69.0195 24.7252 69.0195 26.5329C69.0195 28.3571 69.9746 29.5788 71.3945 29.5788C72.8398 29.5788 73.7871 28.3825 73.7871 26.5329H73.7871Z" fill="white"/>
<path d="M82.2832 27.5993C82.4209 28.8307 83.6172 29.6393 85.252 29.6393C86.8184 29.6393 87.9453 28.8307 87.9453 27.7203C87.9453 26.7564 87.2657 26.1793 85.6563 25.7838L84.0469 25.3961C81.7666 24.8453 80.708 23.7789 80.708 22.0484C80.708 19.9058 82.5752 18.4342 85.2266 18.4342C87.8506 18.4342 89.6494 19.9058 89.71 22.0484H87.834C87.7217 20.8092 86.6973 20.0611 85.2002 20.0611C83.7031 20.0611 82.6787 20.818 82.6787 21.9195C82.6787 22.7975 83.333 23.3141 84.9336 23.7095L86.3018 24.0455C88.8496 24.648 89.9082 25.6715 89.9082 27.4879C89.9082 29.8111 88.0576 31.2662 85.1143 31.2662C82.3603 31.2662 80.501 29.8453 80.3809 27.5992L82.2832 27.5993Z" fill="white"/>
<path d="M93.9189 19.8629V22.0055H95.6406V23.4772H93.9189V28.4684C93.9189 29.2438 94.2637 29.6051 95.0205 29.6051C95.2249 29.6016 95.429 29.5872 95.6318 29.5621V31.025C95.2916 31.0886 94.9457 31.1174 94.5996 31.1109C92.7666 31.1109 92.0518 30.4225 92.0518 28.6666V23.4772H90.7354V22.0055H92.0517V19.8629H93.9189Z" fill="white"/>
<path d="M96.6378 26.5329C96.6378 23.6842 98.3155 21.8942 100.932 21.8942C103.557 21.8942 105.227 23.6842 105.227 26.5329C105.227 29.3893 103.565 31.1715 100.932 31.1715C98.2988 31.1715 96.6378 29.3893 96.6378 26.5329ZM103.333 26.5329C103.333 24.5788 102.438 23.4254 100.932 23.4254C99.4258 23.4254 98.5313 24.5875 98.5313 26.5329C98.5313 28.4948 99.4258 29.6393 100.932 29.6393C102.438 29.6393 103.333 28.4948 103.333 26.5329H103.333Z" fill="white"/>
<path d="M106.759 22.0055H108.531V23.5465H108.574C108.694 23.0652 108.976 22.6399 109.373 22.342C109.769 22.0441 110.256 21.8918 110.752 21.9108C110.966 21.91 111.18 21.9333 111.389 21.9801V23.7184C111.118 23.6358 110.836 23.5978 110.554 23.6061C110.284 23.5951 110.015 23.6427 109.765 23.7456C109.515 23.8485 109.29 24.0042 109.106 24.2021C108.922 24.4 108.783 24.6354 108.699 24.8921C108.615 25.1487 108.587 25.4206 108.617 25.6891V31.0592H106.759L106.759 22.0055Z" fill="white"/>
<path d="M119.957 28.4C119.707 30.0436 118.106 31.1715 116.059 31.1715C113.425 31.1715 111.79 29.4069 111.79 26.5758C111.79 23.736 113.434 21.8942 115.98 21.8942C118.485 21.8942 120.061 23.6149 120.061 26.36V26.9967H113.666V27.109C113.637 27.4422 113.678 27.7779 113.788 28.0937C113.899 28.4096 114.075 28.6984 114.305 28.9409C114.535 29.1834 114.815 29.3742 115.124 29.5005C115.434 29.6268 115.767 29.6858 116.102 29.6735C116.541 29.7146 116.981 29.6129 117.358 29.3835C117.735 29.154 118.027 28.8091 118.192 28.4L119.957 28.4ZM113.675 25.6979H118.201C118.218 25.3983 118.172 25.0985 118.068 24.8173C117.963 24.5361 117.801 24.2795 117.593 24.0638C117.384 23.848 117.133 23.6777 116.856 23.5634C116.579 23.4492 116.28 23.3936 115.98 23.4C115.678 23.3982 115.378 23.4564 115.098 23.5711C114.818 23.6859 114.563 23.8549 114.349 24.0686C114.134 24.2822 113.965 24.5362 113.849 24.8158C113.733 25.0955 113.674 25.3953 113.675 25.6979V25.6979Z" fill="white"/>
<path d="M48.3989 9.29413C48.7885 9.26617 49.1795 9.32503 49.5436 9.46646C49.9077 9.6079 50.2359 9.82838 50.5045 10.112C50.7731 10.3956 50.9754 10.7353 51.0968 11.1066C51.2182 11.4779 51.2557 11.8715 51.2065 12.259C51.2065 14.1652 50.1763 15.261 48.3989 15.261H46.2437V9.29413H48.3989ZM47.1704 14.4171H48.2954C48.5738 14.4338 48.8524 14.3881 49.111 14.2835C49.3695 14.1789 49.6015 14.0179 49.79 13.8124C49.9784 13.6068 50.1187 13.3618 50.2006 13.0952C50.2824 12.8286 50.3038 12.5471 50.2632 12.2711C50.3009 11.9963 50.2773 11.7165 50.1942 11.4519C50.1111 11.1872 49.9705 10.9442 49.7824 10.7403C49.5943 10.5363 49.3635 10.3765 49.1064 10.2723C48.8493 10.1681 48.5724 10.122 48.2954 10.1373H47.1704V14.4171Z" fill="white"/>
<path d="M52.2534 13.0075C52.2251 12.7116 52.2589 12.413 52.3528 12.1309C52.4466 11.8488 52.5984 11.5895 52.7983 11.3695C52.9983 11.1495 53.242 10.9738 53.5138 10.8535C53.7857 10.7332 54.0797 10.6711 54.3769 10.6711C54.6742 10.6711 54.9682 10.7332 55.24 10.8535C55.5119 10.9738 55.7556 11.1495 55.9555 11.3695C56.1555 11.5895 56.3072 11.8488 56.4011 12.1309C56.4949 12.413 56.5288 12.7116 56.5005 13.0075C56.5293 13.3037 56.4959 13.6027 56.4023 13.8852C56.3087 14.1677 56.157 14.4275 55.957 14.648C55.757 14.8684 55.5131 15.0445 55.241 15.165C54.9689 15.2856 54.6746 15.3478 54.3769 15.3478C54.0793 15.3478 53.785 15.2856 53.5128 15.165C53.2407 15.0445 52.9968 14.8684 52.7968 14.648C52.5968 14.4275 52.4452 14.1677 52.3516 13.8852C52.258 13.6027 52.2245 13.3037 52.2534 13.0075V13.0075ZM55.5864 13.0075C55.5864 12.0314 55.1479 11.4606 54.3784 11.4606C53.6059 11.4606 53.1714 12.0314 53.1714 13.0075C53.1714 13.9914 53.606 14.5578 54.3784 14.5578C55.1479 14.5578 55.5864 13.9874 55.5864 13.0075H55.5864Z" fill="white"/>
<path d="M62.146 15.2609H61.2241L60.2935 11.9445H60.2232L59.2964 15.2609H58.3833L57.1421 10.7579H58.0435L58.8501 14.1939H58.9165L59.8423 10.7579H60.6948L61.6206 14.1939H61.6909L62.4937 10.7579H63.3823L62.146 15.2609Z" fill="white"/>
<path d="M64.4263 10.7579H65.2817V11.4733H65.3481C65.4608 11.2164 65.6508 11.001 65.8917 10.8572C66.1325 10.7134 66.4123 10.6483 66.6919 10.671C66.911 10.6546 67.131 10.6876 67.3356 10.7677C67.5402 10.8478 67.7241 10.9729 67.8738 11.1337C68.0235 11.2946 68.1351 11.487 68.2003 11.6969C68.2655 11.9067 68.2826 12.1285 68.2505 12.3458V15.2608H67.3618V12.569C67.3618 11.8454 67.0474 11.4855 66.3901 11.4855C66.2414 11.4786 66.0929 11.5039 65.9548 11.5597C65.8168 11.6155 65.6924 11.7006 65.5903 11.8089C65.4882 11.9173 65.4107 12.0465 65.3632 12.1876C65.3156 12.3288 65.2992 12.4785 65.3149 12.6266V15.2609H64.4263L64.4263 10.7579Z" fill="white"/>
<path d="M69.6665 9.00013H70.5552V15.2609H69.6665V9.00013Z" fill="white"/>
<path d="M71.7905 13.0075C71.7623 12.7115 71.7961 12.4129 71.89 12.1309C71.9838 11.8488 72.1356 11.5894 72.3356 11.3694C72.5356 11.1495 72.7793 10.9737 73.0512 10.8534C73.323 10.7331 73.617 10.671 73.9143 10.671C74.2116 10.671 74.5056 10.7331 74.7775 10.8534C75.0494 10.9737 75.2931 11.1495 75.493 11.3694C75.693 11.5894 75.8448 11.8488 75.9386 12.1309C76.0325 12.4129 76.0664 12.7115 76.0381 13.0075C76.0669 13.3037 76.0334 13.6027 75.9398 13.8852C75.8462 14.1677 75.6945 14.4275 75.4945 14.648C75.2945 14.8684 75.0506 15.0445 74.7784 15.165C74.5063 15.2855 74.212 15.3478 73.9143 15.3478C73.6167 15.3478 73.3223 15.2855 73.0502 15.165C72.7781 15.0445 72.5342 14.8684 72.3342 14.648C72.1341 14.4275 71.9825 14.1677 71.8888 13.8852C71.7952 13.6027 71.7617 13.3037 71.7905 13.0075V13.0075ZM75.1235 13.0075C75.1235 12.0314 74.6851 11.4606 73.9155 11.4606C73.1431 11.4606 72.7085 12.0314 72.7085 13.0075C72.7085 13.9914 73.1431 14.5578 73.9155 14.5578C74.6851 14.5578 75.1235 13.9874 75.1235 13.0075H75.1235Z" fill="white"/>
<path d="M76.9736 13.9874C76.9736 13.1769 77.5771 12.7096 78.6484 12.6432L79.8682 12.5729V12.1842C79.8682 11.7086 79.5537 11.4401 78.9463 11.4401C78.4502 11.4401 78.1065 11.6222 78.0078 11.9406H77.1475C77.2383 11.1671 77.9658 10.671 78.9873 10.671C80.1162 10.671 80.7529 11.233 80.7529 12.1842V15.2609H79.8975V14.6281H79.8271C79.6844 14.8551 79.484 15.0401 79.2464 15.1643C79.0088 15.2885 78.7425 15.3475 78.4746 15.3351C78.2856 15.3547 78.0945 15.3346 77.9138 15.2759C77.733 15.2172 77.5665 15.1213 77.4251 14.9943C77.2837 14.8673 77.1705 14.7121 77.0927 14.5387C77.0149 14.3653 76.9744 14.1775 76.9736 13.9874V13.9874ZM79.8682 13.6027V13.2262L78.7686 13.2965C78.1484 13.338 77.8672 13.549 77.8672 13.9459C77.8672 14.3512 78.2187 14.587 78.7022 14.587C78.8438 14.6014 78.9869 14.5871 79.1229 14.545C79.2589 14.5029 79.3851 14.4339 79.4939 14.342C79.6026 14.2502 79.6918 14.1374 79.7561 14.0104C79.8204 13.8834 79.8585 13.7447 79.8682 13.6027V13.6027Z" fill="white"/>
<path d="M81.9209 13.0075C81.9209 11.5846 82.6523 10.6832 83.79 10.6832C84.0715 10.6703 84.3508 10.7377 84.5953 10.8776C84.8398 11.0175 85.0395 11.2241 85.1709 11.4732H85.2373V9.00013H86.126V15.2609H85.2744V14.5494H85.2041C85.0625 14.7969 84.8559 15.001 84.6066 15.1394C84.3574 15.2779 84.075 15.3456 83.79 15.3351C82.6445 15.3351 81.9209 14.4337 81.9209 13.0075ZM82.8389 13.0075C82.8389 13.9625 83.2891 14.5373 84.042 14.5373C84.791 14.5373 85.2539 13.9543 85.2539 13.0114C85.2539 12.0729 84.7862 11.4816 84.042 11.4816C83.294 11.4816 82.8389 12.0602 82.8389 13.0075H82.8389Z" fill="white"/>
<path d="M89.8027 13.0075C89.7744 12.7116 89.8082 12.413 89.9021 12.1309C89.9959 11.8488 90.1477 11.5895 90.3476 11.3695C90.5476 11.1495 90.7913 10.9738 91.0631 10.8535C91.335 10.7332 91.629 10.6711 91.9262 10.6711C92.2235 10.6711 92.5175 10.7332 92.7894 10.8535C93.0612 10.9738 93.3049 11.1495 93.5048 11.3695C93.7048 11.5895 93.8566 11.8488 93.9504 12.1309C94.0442 12.413 94.0781 12.7116 94.0498 13.0075C94.0786 13.3037 94.0452 13.6027 93.9516 13.8852C93.858 14.1677 93.7063 14.4275 93.5063 14.648C93.3063 14.8684 93.0624 15.0445 92.7903 15.165C92.5182 15.2856 92.2239 15.3478 91.9262 15.3478C91.6286 15.3478 91.3343 15.2856 91.0622 15.165C90.79 15.0445 90.5461 14.8684 90.3462 14.648C90.1462 14.4275 89.9945 14.1677 89.9009 13.8852C89.8073 13.6027 89.7739 13.3037 89.8027 13.0075V13.0075ZM93.1357 13.0075C93.1357 12.0314 92.6972 11.4606 91.9277 11.4606C91.1552 11.4606 90.7207 12.0314 90.7207 13.0075C90.7207 13.9914 91.1553 14.5578 91.9277 14.5578C92.6972 14.5578 93.1357 13.9874 93.1357 13.0075Z" fill="white"/>
<path d="M95.2422 10.7579H96.0977V11.4733H96.1641C96.2767 11.2164 96.4667 11.001 96.7076 10.8572C96.9485 10.7134 97.2282 10.6483 97.5078 10.671C97.7269 10.6546 97.9469 10.6876 98.1515 10.7677C98.3561 10.8478 98.5401 10.9729 98.6898 11.1337C98.8394 11.2946 98.951 11.487 99.0162 11.6969C99.0814 11.9067 99.0986 12.1285 99.0664 12.3458V15.2608H98.1777V12.569C98.1777 11.8454 97.8633 11.4855 97.2061 11.4855C97.0573 11.4786 96.9088 11.5039 96.7707 11.5597C96.6327 11.6155 96.5083 11.7006 96.4062 11.8089C96.3041 11.9173 96.2266 12.0465 96.1791 12.1876C96.1315 12.3288 96.1151 12.4785 96.1309 12.6266V15.2609H95.2422V10.7579Z" fill="white"/>
<path d="M104.088 9.63686V10.7785H105.063V11.527H104.088V13.8424C104.088 14.3141 104.282 14.5206 104.725 14.5206C104.838 14.5203 104.951 14.5134 105.063 14.5001V15.2404C104.904 15.2689 104.742 15.2841 104.58 15.2858C103.592 15.2858 103.198 14.9381 103.198 14.07V11.527H102.483V10.7784H103.198V9.63686H104.088Z" fill="white"/>
<path d="M106.277 9.00013H107.158V11.4816H107.229C107.347 11.2223 107.542 11.0057 107.788 10.8613C108.033 10.717 108.317 10.6519 108.602 10.6749C108.819 10.6631 109.037 10.6995 109.24 10.7815C109.442 10.8636 109.624 10.9892 109.772 11.1496C109.92 11.3099 110.031 11.501 110.097 11.7091C110.162 11.9172 110.181 12.1373 110.152 12.3536V15.2609H109.263V12.5729C109.263 11.8536 108.928 11.4894 108.3 11.4894C108.147 11.4769 107.993 11.4979 107.85 11.5509C107.706 11.604 107.575 11.6878 107.467 11.7965C107.359 11.9053 107.277 12.0363 107.224 12.1804C107.172 12.3246 107.152 12.4783 107.166 12.631V15.2609H106.277L106.277 9.00013Z" fill="white"/>
<path d="M115.334 14.0451C115.213 14.4566 114.952 14.8126 114.595 15.0507C114.238 15.2889 113.809 15.394 113.383 15.3478C113.086 15.3556 112.791 15.2988 112.519 15.1813C112.246 15.0637 112.003 14.8883 111.805 14.6672C111.607 14.446 111.459 14.1845 111.373 13.9007C111.286 13.6168 111.262 13.3176 111.303 13.0236C111.263 12.7287 111.288 12.4288 111.374 12.1441C111.46 11.8594 111.607 11.5966 111.804 11.3736C112.001 11.1505 112.243 10.9723 112.515 10.8511C112.787 10.7299 113.081 10.6685 113.379 10.671C114.632 10.671 115.388 11.527 115.388 12.941V13.2511H112.208V13.3009C112.194 13.4662 112.215 13.6325 112.269 13.7893C112.323 13.946 112.409 14.0897 112.522 14.2112C112.635 14.3326 112.772 14.4291 112.925 14.4945C113.077 14.5599 113.241 14.5928 113.407 14.5909C113.62 14.6164 113.835 14.5782 114.026 14.481C114.217 14.3838 114.374 14.232 114.478 14.045L115.334 14.0451ZM112.208 12.5939H114.482C114.494 12.4428 114.473 12.291 114.422 12.1482C114.371 12.0055 114.291 11.875 114.186 11.7652C114.082 11.6553 113.956 11.5685 113.816 11.5104C113.676 11.4522 113.525 11.4239 113.374 11.4274C113.22 11.4255 113.068 11.4543 112.925 11.5123C112.783 11.5702 112.654 11.6561 112.545 11.7648C112.436 11.8735 112.351 12.0029 112.293 12.1453C112.235 12.2876 112.206 12.4402 112.208 12.5939H112.208Z" fill="white"/>
<path d="M28.7973 20.5805C28.8081 19.7459 29.0298 18.9275 29.4418 18.2015C29.8538 17.4756 30.4428 16.8657 31.1539 16.4285C30.7021 15.7833 30.1062 15.2524 29.4134 14.8778C28.7205 14.5033 27.9499 14.2954 27.1627 14.2708C25.4835 14.0945 23.8555 15.2756 22.9998 15.2756C22.1275 15.2756 20.81 14.2883 19.3913 14.3175C18.4736 14.3471 17.5793 14.614 16.7954 15.0921C16.0115 15.5701 15.3649 16.2431 14.9184 17.0454C12.9844 20.3938 14.427 25.3148 16.2796 28.0214C17.2065 29.3468 18.2898 30.8272 19.7072 30.7747C21.0943 30.7172 21.6123 29.8903 23.2866 29.8903C24.9454 29.8903 25.4314 30.7747 26.8776 30.7414C28.366 30.7172 29.3038 29.4101 30.1981 28.0722C30.8641 27.1279 31.3766 26.0841 31.7166 24.9797C30.8518 24.614 30.1139 24.0018 29.5948 23.2195C29.0757 22.4372 28.7983 21.5194 28.7973 20.5805V20.5805Z" fill="white"/>
<path d="M26.0657 12.4907C26.8772 11.5165 27.277 10.2644 27.1802 9.00013C25.9404 9.13035 24.7951 9.72291 23.9726 10.6597C23.5705 11.1174 23.2625 11.6498 23.0663 12.2266C22.87 12.8034 22.7894 13.4132 22.8289 14.0211C23.4491 14.0275 24.0626 13.8931 24.6232 13.628C25.1839 13.3629 25.6771 12.9741 26.0657 12.4907Z" fill="white"/>
</svg>
