<svg width="980" height="691" viewBox="0 0 980 691" fill="none" xmlns="http://www.w3.org/2000/svg">
<path d="M70.77 689.5H0V530.26H70.77C96.77 533.253 114.7 547.643 124.56 573.43C129.342 585.01 131.825 597.411 131.87 609.94C131.832 622.431 129.348 634.793 124.56 646.33C114.733 672.11 96.8033 686.5 70.77 689.5ZM88.58 608.5C88.5 578.54 77.3733 563.167 55.2 562.38H46.71V656.75L55.2 656.98C77.5333 654.593 88.66 638.42 88.58 608.46V608.5Z" fill="white"/>
<path d="M308.8 608.35C308.8 632.963 300.817 652.877 284.85 668.09C268.883 683.303 248.677 690.91 224.23 690.91C199.77 690.91 179.637 683.303 163.83 668.09C148.023 652.877 140.123 632.963 140.13 608.35C140.13 583.73 147.993 563.777 163.72 548.49C179.447 533.203 199.713 525.553 224.52 525.54C249.333 525.54 269.583 533.19 285.27 548.49C300.957 563.79 308.8 583.743 308.8 608.35ZM252.89 578.74C245.81 570.96 236.373 567.067 224.58 567.06C212.787 567.053 203.31 570.967 196.15 578.8C189.003 586.62 185.427 596.487 185.42 608.4C185.413 620.313 188.99 630.123 196.15 637.83C203.31 645.537 212.767 649.39 224.52 649.39C236.273 649.39 245.71 645.5 252.83 637.72C259.95 629.907 263.507 620.077 263.5 608.23C263.493 596.383 259.957 586.553 252.89 578.74V578.74Z" fill="white"/>
<path d="M396.67 579.33L429.46 539.93C434.793 533.49 442.03 530.267 451.17 530.26H474.52V669C474.52 682.687 466.736 689.53 451.17 689.53C435.603 689.53 427.816 682.687 427.81 669V603.86L396.67 640.43L365.53 604.1V669C365.53 682.687 357.746 689.53 342.18 689.53H318.82V530.26H342.18C351.14 530.34 358.296 533.563 363.65 539.93L396.67 579.33Z" fill="white"/>
<path d="M533 669C533 682.687 525.216 689.53 509.65 689.53H486.32V550.79C486.32 537.103 494.103 530.26 509.67 530.26H533V669Z" fill="white"/>
<path d="M641.07 601.27V550.79C641.07 537.103 648.853 530.26 664.42 530.26H687.78V669C687.78 682.687 679.993 689.53 664.42 689.53C655.753 689.53 648.913 686.53 643.9 680.53L591.53 618.25V669C591.53 682.687 583.743 689.53 568.17 689.53H544.82V530.38L568.17 530.26C578.17 530.18 585.326 533.403 589.64 539.93L641.07 601.27Z" fill="white"/>
<path d="M825.07 646.33C825.07 661.35 818.683 672.497 805.91 679.77C793.136 687.043 778.606 690.68 762.32 690.68C746.04 690.68 731.513 687.043 718.74 679.77C705.966 672.497 699.576 661.35 699.57 646.33V530.26H722.93C738.503 530.26 746.287 537.103 746.28 550.79V639.48C746.28 648.453 751.613 652.937 762.28 652.93C772.947 652.923 778.28 648.44 778.28 639.48V530.26H801.64C817.206 530.26 824.99 537.103 824.99 550.79L825.07 646.33Z" fill="white"/>
<path d="M933.12 601.27V550.79C933.12 537.103 940.903 530.26 956.47 530.26H979.83V669C979.83 682.687 972.043 689.53 956.47 689.53C947.803 689.53 940.963 686.53 935.95 680.53L883.58 618.25V669C883.58 682.687 875.793 689.53 860.22 689.53H836.87V530.38L860.22 530.26C870.22 530.18 877.377 533.403 881.69 539.93L933.12 601.27Z" fill="white"/>
<path d="M489.91 473.48C620.658 473.48 726.65 367.488 726.65 236.74C726.65 105.992 620.658 0 489.91 0C359.162 0 253.17 105.992 253.17 236.74C253.17 367.488 359.162 473.48 489.91 473.48Z" fill="white"/>
<path fill-rule="evenodd" clip-rule="evenodd" d="M544.41 159.52C554.262 148.912 560.804 135.66 563.234 121.388C565.665 107.116 563.877 92.4456 558.091 79.1749C552.305 65.9043 542.772 54.6107 530.661 46.679C518.55 38.7473 504.387 34.5225 489.91 34.5225C475.433 34.5225 461.27 38.7473 449.159 46.679C437.048 54.6107 427.515 65.9043 421.729 79.1749C415.943 92.4456 414.155 107.116 416.585 121.388C419.015 135.66 425.558 148.912 435.41 159.52H544.41Z" fill="#FBE8CF"/>
<path fill-rule="evenodd" clip-rule="evenodd" d="M489.91 34.54V159.54H544.41C554.268 148.934 560.815 135.681 563.248 121.407C565.681 107.133 563.895 92.4599 558.108 79.187C552.321 65.914 542.785 54.6191 530.67 46.6881C518.556 38.7572 504.39 34.5351 489.91 34.54V34.54Z" fill="#F1D49C"/>
<path fill-rule="evenodd" clip-rule="evenodd" d="M482.29 138.15H496.71V91.56H519.49V77.14H496.71V55.91H482.29V77.14H460.34V91.56H482.29V138.15Z" fill="#DEA708"/>
<path fill-rule="evenodd" clip-rule="evenodd" d="M489.91 138.15V55.91H482.29V77.14H460.34V91.56H482.29V138.15H489.91Z" fill="#ECC172"/>
<path fill-rule="evenodd" clip-rule="evenodd" d="M405.8 171.06V215.61C405.792 235.586 413.227 254.849 426.653 269.641C440.08 284.432 458.536 293.69 478.42 295.61V320.45C475.857 320.719 473.484 321.928 471.76 323.843C470.035 325.758 469.081 328.243 469.08 330.82V331.08C469.082 333.556 469.966 335.951 471.573 337.834C473.18 339.718 475.405 340.968 477.85 341.36C475.85 373.72 467.61 400.04 438.43 429.22H439.06C437.821 429.22 436.633 429.712 435.758 430.588C434.882 431.464 434.39 432.651 434.39 433.89V434.3C434.39 435.539 434.882 436.726 435.758 437.602C436.633 438.478 437.821 438.97 439.06 438.97H540.76C541.999 438.97 543.188 438.478 544.066 437.603C544.943 436.727 545.437 435.539 545.44 434.3V433.89C545.437 432.651 544.943 431.463 544.066 430.587C543.188 429.712 541.999 429.22 540.76 429.22H541.39C511.94 399.76 503.88 373.6 501.95 341.36C504.4 340.974 506.633 339.727 508.246 337.843C509.859 335.958 510.747 333.56 510.75 331.08V330.82C510.747 328.244 509.791 325.759 508.067 323.845C506.343 321.931 503.972 320.721 501.41 320.45C501.41 320.23 501.41 320.01 501.41 319.78V295.66C521.212 293.986 539.665 284.939 553.115 270.309C566.565 255.679 574.033 236.533 574.04 216.66V171.06H405.8Z" fill="#FBBB00"/>
<path fill-rule="evenodd" clip-rule="evenodd" d="M417.22 171.06V215.61C417.22 257.38 444.77 291.7 479.98 295.61V320.45C475.44 321 471.91 325.45 471.91 330.82V331.08C471.91 336.27 475.19 340.56 479.48 341.36C477.76 373.72 470.64 400.04 445.43 429.22H446C443.77 429.22 442 431.31 442 433.89V434.3C442 436.88 443.81 438.97 446 438.97H533.88C536.12 438.97 537.88 436.88 537.88 434.3V433.89C537.88 431.31 536.08 429.22 533.88 429.22H534.43C508.97 399.76 502.01 373.6 500.35 341.36C504.65 340.58 507.95 336.28 507.95 331.08V330.82C507.95 325.43 504.41 321 499.88 320.45C499.88 320.23 499.88 320.01 499.88 319.78V295.66C535.03 292.26 562.64 258.2 562.64 216.66V171.06H417.22Z" fill="#FEDF9A"/>
<path fill-rule="evenodd" clip-rule="evenodd" d="M489.91 171.06V438.94H540.76C542 438.94 543.189 438.448 544.066 437.573C544.943 436.697 545.438 435.509 545.44 434.27V433.86C545.438 432.621 544.943 431.433 544.066 430.557C543.189 429.682 542 429.19 540.76 429.19H541.39C511.94 399.73 503.88 373.57 501.95 341.33C504.401 340.944 506.633 339.697 508.246 337.813C509.859 335.928 510.747 333.53 510.75 331.05V330.79C510.747 328.214 509.792 325.729 508.068 323.815C506.343 321.901 503.972 320.691 501.41 320.42C501.41 320.2 501.41 319.98 501.41 319.75V295.66C521.213 293.986 539.665 284.939 553.115 270.309C566.565 255.679 574.033 236.533 574.04 216.66V171.06H489.91Z" fill="#D99C00"/>
<path fill-rule="evenodd" clip-rule="evenodd" d="M458.08 171.06V215.61C458.08 257.38 470.14 291.7 485.56 295.61V320.45C483.56 321 482.03 325.45 482.03 330.82V331.08C482.03 336.27 483.47 340.56 485.35 341.36C484.59 373.72 481.47 400.04 470.43 429.22H470.67C469.67 429.22 468.9 431.31 468.9 433.89V434.3C468.9 436.88 469.69 438.97 470.67 438.97H509.15C510.15 438.97 510.92 436.88 510.92 434.3V433.89C510.92 431.31 510.13 429.22 509.15 429.22H509.39C498.25 399.76 495.2 373.6 494.47 341.36C496.35 340.58 497.8 336.28 497.8 331.08V330.82C497.8 325.43 496.25 321 494.26 320.45V295.66C509.65 292.26 521.74 258.2 521.74 216.66V171.06H458.08Z" fill="#FABB00"/>
<path d="M417.23 187.53H405.8V201.29H417.23V187.53Z" fill="#D79A00"/>
<path d="M458.08 187.53H417.22V201.29H458.08V187.53Z" fill="#FABB00"/>
<path d="M521.74 187.53H458.08V201.29H521.74V187.53Z" fill="#D99C00"/>
<path d="M574.03 187.53H521.74V201.29H574.03V187.53Z" fill="#BC7214"/>
</svg>
