<svg width="303" height="305" viewBox="0 0 303 305" fill="none" xmlns="http://www.w3.org/2000/svg">
<path d="M168.104 284.521C162.708 284.759 157.772 282.389 155.499 280.867C155.175 280.65 155.031 280.256 155.112 279.876L158.412 264.316C158.456 264.111 158.557 263.93 158.712 263.789C203.96 222.734 295.288 145.229 300.479 162C305.679 178.8 286.313 209.333 275.979 222.5C260.999 244.971 244.522 237.519 219.576 244.971C219.512 244.99 219.446 245.003 219.381 245.009C194.109 247.474 171.135 280.798 168.687 284.222C168.546 284.419 168.346 284.51 168.104 284.521Z" fill="#FFC500"/>
<path d="M93.347 164.402C72.5669 227.999 127.076 269.134 157.232 281.896C157.398 281.966 157.565 281.99 157.742 281.955C166.278 280.274 185.402 255.036 193.979 242.5C202.76 228.531 243.799 224.02 263.351 218.536C263.439 218.512 263.519 218.476 263.597 218.428C293.012 200.411 305.152 166.959 301.979 136.5C300.056 118.033 283.176 98.0852 274.03 89.471C273.523 88.9933 272.581 89.1385 271.998 89.5197C269.781 90.9686 264.605 92.0382 261.685 92.4701C261.548 92.4904 261.408 92.4801 261.274 92.4428C224.577 82.2132 197.025 86.8191 195.536 86.9949C195.486 87.0009 195.452 87.0041 195.402 87.0119C110.912 100.008 95.6105 158.649 93.6555 163.661C93.5589 163.909 93.4295 164.149 93.347 164.402Z" fill="#FF7801"/>
<path d="M41.4793 146C34.6551 187.703 45.5578 221.621 52.8166 235.407C53.2313 236.195 52.5076 237.104 51.6591 236.835C16.3503 225.65 1.94754 171.778 0.47929 161.5C-1.02071 151 1.47929 134.5 1.47929 131C1.47929 127.5 7.97929 102.5 13.4793 85C17.8793 71 27.646 64.5 31.9793 63C44.146 58.3333 69.9793 48.8 75.9793 48C83.4793 47 87.9793 54.5 87.9793 55C87.9793 55.5 50.4793 91 41.4793 146Z" fill="#FFC500"/>
<path d="M142.479 23C141.333 23.3821 125.799 18.3195 117.147 15.3959C116.544 15.1919 116.289 14.4829 116.639 13.9508C123.975 2.82383 136.82 0 142.479 0C181.842 4.02568 211.6 18.8554 217.078 21.221C217.243 21.2712 217.408 21.3218 217.573 21.3729C217.832 21.4532 217.858 21.5351 217.605 21.4384C217.466 21.3855 217.29 21.3126 217.078 21.221C180.865 10.2049 143.967 22.5041 142.479 23Z" fill="#FFC500"/>
<path d="M77.4793 195C87.7518 281.365 170.009 299.787 215.739 298.369C216.889 298.333 217.178 299.872 216.075 300.204C172.746 313.217 111.781 295.421 87.9793 274C62.9793 251.5 37.9793 205 45.4793 148.5C51.4793 103.3 76.9793 73.6667 88.4793 64.5C103.384 51.0376 85.9252 41.2738 83.2287 39.6547C83.0594 39.5531 82.8681 39.5004 82.6707 39.4985C73.1084 39.4047 72.181 34.9465 72.9432 32.6059C72.9664 32.5345 73.0005 32.4666 73.0413 32.4035C85.038 13.8397 120.948 24.5613 139.18 32.3715C139.379 32.4565 139.591 32.4731 139.801 32.4232C159.757 27.6836 185.527 26.1658 194.479 26C226.659 27.1919 248.021 49.527 254.841 60.771C254.935 60.9253 254.979 61.0953 254.979 61.2758V63.8208C254.979 64.2308 255.252 64.6077 255.632 64.7609C281.002 74.9802 269.798 79.9897 267.025 81.2295L266.97 81.254C266.656 81.3947 266.267 81.4509 265.931 81.3745C176.627 61.0635 123.503 103.7 119.255 108.146C119.041 108.37 118.828 108.616 118.583 108.806C71.5127 145.281 77.4793 195.499 77.4793 195Z" fill="#2B6CE2"/>
</svg>
