<svg width="136" height="40" viewBox="0 0 136 40" fill="none" xmlns="http://www.w3.org/2000/svg">
  <g clip-path="url(#clip0_16_379)">
    <path fill-rule="evenodd" clip-rule="evenodd"
      d="M130.534 40H5.55626C2.78818 40 0.533813 37.7456 0.533813 35V5C0.533813 2.24439 2.78818 0 5.55626 0H130.534C133.299 0 135.556 2.24439 135.556 5V35C135.556 37.7456 133.299 40 130.534 40Z"
      fill="black" />
    <path fill-rule="evenodd" clip-rule="evenodd"
      d="M130.534 0.800499C132.856 0.800499 134.756 2.68828 134.756 5V35C134.756 37.3117 132.868 39.1995 130.534 39.1995H5.55626C3.23456 39.1995 1.33431 37.3117 1.33431 35V5C1.33431 2.68828 3.22209 0.800499 5.55626 0.800499H130.534ZM130.534 0H5.55626C2.78818 0 0.533813 2.25436 0.533813 5V35C0.533813 37.7556 2.78818 40 5.55626 40H130.534C133.299 40 135.556 37.7556 135.556 35V5C135.556 2.25436 133.299 0 130.534 0Z"
      fill="#A6A6A6" />
    <path
      d="M68.6698 21.752C66.3178 21.752 64.4008 23.54 64.4008 26.005C64.4008 28.454 66.3178 30.258 68.6698 30.258C71.0218 30.258 72.9388 28.454 72.9388 26.005C72.9388 23.54 71.0218 21.752 68.6698 21.752ZM68.6698 28.583C67.3808 28.583 66.2688 27.52 66.2688 26.005C66.2688 24.474 67.3808 23.427 68.6698 23.427C69.9588 23.427 71.0698 24.474 71.0698 26.005C71.0698 27.519 69.9588 28.583 68.6698 28.583ZM59.3558 21.752C57.0038 21.752 55.0868 23.54 55.0868 26.005C55.0868 28.454 57.0038 30.258 59.3558 30.258C61.7078 30.258 63.6248 28.454 63.6248 26.005C63.6258 23.54 61.7078 21.752 59.3558 21.752ZM59.3558 28.583C58.0668 28.583 56.9558 27.52 56.9558 26.005C56.9558 24.474 58.0678 23.427 59.3558 23.427C60.6448 23.427 61.7558 24.474 61.7558 26.005C61.7568 27.519 60.6448 28.583 59.3558 28.583ZM48.2778 23.057V24.861H52.5958C52.4668 25.876 52.1288 26.617 51.6128 27.133C50.9848 27.761 50.0018 28.454 48.2778 28.454C45.6198 28.454 43.5418 26.311 43.5418 23.653C43.5418 20.995 45.6198 18.852 48.2778 18.852C49.7118 18.852 50.7588 19.416 51.5318 20.141L52.8048 18.868C51.7258 17.837 50.2918 17.047 48.2778 17.047C44.6368 17.047 41.5758 20.011 41.5758 23.652C41.5758 27.293 44.6368 30.257 48.2778 30.257C50.2428 30.257 51.7258 29.613 52.8858 28.404C54.0778 27.212 54.4488 25.536 54.4488 24.183C54.4488 23.764 54.4168 23.377 54.3518 23.055H48.2778V23.057ZM93.5858 24.458C93.2318 23.507 92.1518 21.751 89.9448 21.751C87.7538 21.751 85.9338 23.475 85.9338 26.004C85.9338 28.388 87.7378 30.257 90.1548 30.257C92.1038 30.257 93.2318 29.065 93.6988 28.372L92.2488 27.405C91.7658 28.114 91.1048 28.581 90.1548 28.581C89.2038 28.581 88.5278 28.146 88.0928 27.292L93.7798 24.94L93.5858 24.458ZM87.7858 25.876C87.7378 24.233 89.0588 23.395 90.0088 23.395C90.7498 23.395 91.3778 23.765 91.5878 24.297L87.7858 25.876ZM83.1618 30H85.0308V17.499H83.1618V30ZM80.1008 22.702H80.0368C79.6178 22.203 78.8128 21.751 77.7978 21.751C75.6708 21.751 73.7218 23.62 73.7218 26.02C73.7218 28.404 75.6708 30.257 77.7978 30.257C78.8128 30.257 79.6178 29.806 80.0368 29.29H80.1008V29.902C80.1008 31.529 79.2308 32.399 77.8288 32.399C76.6848 32.399 75.9758 31.577 75.6858 30.885L74.0588 31.562C74.5258 32.69 75.7668 34.075 77.8288 34.075C80.0198 34.075 81.8728 32.786 81.8728 29.645V22.009H80.1008V22.702ZM77.9588 28.583C76.6698 28.583 75.5908 27.504 75.5908 26.021C75.5908 24.523 76.6698 23.427 77.9588 23.427C79.2318 23.427 80.2298 24.522 80.2298 26.021C80.2298 27.503 79.2318 28.583 77.9588 28.583ZM102.34 17.499H97.8688V30H99.7338V25.264H102.339C104.407 25.264 106.44 23.767 106.44 21.382C106.44 18.997 104.408 17.499 102.34 17.499ZM102.388 23.524H99.7338V19.239H102.388C103.783 19.239 104.575 20.394 104.575 21.382C104.575 22.35 103.783 23.524 102.388 23.524ZM113.92 21.729C112.569 21.729 111.17 22.324 110.591 23.643L112.248 24.335C112.602 23.643 113.261 23.418 113.953 23.418C114.918 23.418 115.899 23.997 115.915 25.026V25.155C115.577 24.962 114.853 24.672 113.969 24.672C112.184 24.672 110.366 25.653 110.366 27.487C110.366 29.16 111.83 30.237 113.47 30.237C114.725 30.237 115.416 29.674 115.85 29.015H115.914V29.98H117.715V25.187C117.715 22.967 116.059 21.729 113.92 21.729ZM113.694 28.58C113.083 28.58 112.23 28.274 112.23 27.519C112.23 26.554 113.292 26.184 114.208 26.184C115.028 26.184 115.414 26.361 115.913 26.602C115.769 27.76 114.772 28.58 113.694 28.58ZM124.277 22.002L122.138 27.422H122.074L119.855 22.002H117.845L121.174 29.577L119.276 33.791H121.222L126.353 22.002H124.277ZM107.47 30H109.336V17.499H107.47V30Z"
      fill="white" />
    <path fill-rule="evenodd" clip-rule="evenodd"
      d="M74.1428 12.224C73.5528 12.831 72.8198 13.133 71.9428 13.133C71.0658 13.133 70.3328 12.83 69.7438 12.224C69.1538 11.618 68.8598 10.876 68.8598 9.999C68.8598 9.122 69.1538 8.38 69.7438 7.774C70.3328 7.167 71.0658 6.864 71.9428 6.864C72.8148 6.864 73.5468 7.169 74.1388 7.778C74.7308 8.387 75.0268 9.127 75.0268 9.999C75.0268 10.877 74.7318 11.619 74.1428 12.224ZM70.3128 11.722C70.7568 12.172 71.2998 12.396 71.9428 12.396C72.5858 12.396 73.1288 12.171 73.5728 11.722C74.0168 11.272 74.2398 10.698 74.2398 10C74.2398 9.302 74.0168 8.727 73.5728 8.278C73.1298 7.828 72.5858 7.604 71.9428 7.604C71.2998 7.604 70.7568 7.829 70.3128 8.278C69.8698 8.728 69.6468 9.302 69.6468 10C69.6468 10.698 69.8698 11.272 70.3128 11.722Z"
      fill="white" />
    <path
      d="M47.9518 10.243C47.9518 11.081 47.7038 11.748 47.2068 12.246C46.6428 12.838 45.9068 13.134 45.0028 13.134C44.1368 13.134 43.3998 12.834 42.7948 12.234C42.1888 11.633 41.8858 10.889 41.8858 10.001C41.8858 9.112 42.1888 8.368 42.7948 7.768C43.3998 7.167 44.1368 6.867 45.0028 6.867C45.4328 6.867 45.8438 6.951 46.2338 7.118C46.6248 7.286 46.9378 7.509 47.1718 7.788L46.6448 8.316C46.2478 7.841 45.7008 7.604 45.0018 7.604C44.3698 7.604 43.8238 7.826 43.3628 8.27C42.9028 8.714 42.6728 9.29 42.6728 10C42.6728 10.71 42.9028 11.286 43.3638 11.731C43.8248 12.175 44.3708 12.397 45.0028 12.397C45.6728 12.397 46.2318 12.174 46.6788 11.727C46.9688 11.436 47.1368 11.031 47.1818 10.512H45.0028V9.79H47.9098C47.9388 9.947 47.9518 10.098 47.9518 10.243Z"
      fill="white" />
    <path d="M52.5618 7.737H49.8298V9.639H52.2938V10.36H49.8298V12.262H52.5618V13H49.0588V7H52.5618V7.737Z"
      fill="white" />
    <path d="M55.0408 13H55.8118V7.737H57.4878V7H53.3648V7.737H55.0408V13Z" fill="white" />
    <path d="M60.4718 13V7H61.2428V13H60.4718Z" fill="white" />
    <path d="M63.8898 13H64.6608V7.737H66.3368V7H62.2138V7.737H63.8898V13Z" fill="white" />
    <path
      d="M76.1088 7V13H76.8778V9.262L76.8448 8.106H76.8778L79.9288 13H80.7338V7H79.9628V10.512L79.9958 11.668H79.9628L77.0468 7H76.1088Z"
      fill="white" />
    <path fill-rule="evenodd" clip-rule="evenodd"
      d="M74.1428 12.224C73.5528 12.831 72.8198 13.133 71.9428 13.133C71.0658 13.133 70.3328 12.83 69.7438 12.224C69.1538 11.618 68.8598 10.876 68.8598 9.999C68.8598 9.122 69.1538 8.38 69.7438 7.774C70.3328 7.167 71.0658 6.864 71.9428 6.864C72.8148 6.864 73.5468 7.169 74.1388 7.778C74.7308 8.387 75.0268 9.127 75.0268 9.999C75.0268 10.877 74.7318 11.619 74.1428 12.224ZM70.3128 11.722C70.7568 12.172 71.2998 12.396 71.9428 12.396C72.5858 12.396 73.1288 12.171 73.5728 11.722C74.0168 11.272 74.2398 10.698 74.2398 10C74.2398 9.302 74.0168 8.727 73.5728 8.278C73.1298 7.828 72.5858 7.604 71.9428 7.604C71.2998 7.604 70.7568 7.829 70.3128 8.278C69.8698 8.728 69.6468 9.302 69.6468 10C69.6468 10.698 69.8698 11.272 70.3128 11.722Z"
      stroke="white" stroke-width="0.2" stroke-miterlimit="10" />
    <path
      d="M47.9518 10.243C47.9518 11.081 47.7038 11.748 47.2068 12.246C46.6428 12.838 45.9068 13.134 45.0028 13.134C44.1368 13.134 43.3998 12.834 42.7948 12.234C42.1888 11.633 41.8858 10.889 41.8858 10.001C41.8858 9.112 42.1888 8.368 42.7948 7.768C43.3998 7.167 44.1368 6.867 45.0028 6.867C45.4328 6.867 45.8438 6.951 46.2338 7.118C46.6248 7.286 46.9378 7.509 47.1718 7.788L46.6448 8.316C46.2478 7.841 45.7008 7.604 45.0018 7.604C44.3698 7.604 43.8238 7.826 43.3628 8.27C42.9028 8.714 42.6728 9.29 42.6728 10C42.6728 10.71 42.9028 11.286 43.3638 11.731C43.8248 12.175 44.3708 12.397 45.0028 12.397C45.6728 12.397 46.2318 12.174 46.6788 11.727C46.9688 11.436 47.1368 11.031 47.1818 10.512H45.0028V9.79H47.9098C47.9388 9.947 47.9518 10.098 47.9518 10.243Z"
      stroke="white" stroke-width="0.2" stroke-miterlimit="10" />
    <path d="M52.5618 7.737H49.8298V9.639H52.2938V10.36H49.8298V12.262H52.5618V13H49.0588V7H52.5618V7.737Z"
      stroke="white" stroke-width="0.2" stroke-miterlimit="10" />
    <path d="M55.0408 13H55.8118V7.737H57.4878V7H53.3648V7.737H55.0408V13Z" stroke="white" stroke-width="0.2"
      stroke-miterlimit="10" />
    <path d="M60.4718 13V7H61.2428V13H60.4718Z" stroke="white" stroke-width="0.2" stroke-miterlimit="10" />
    <path d="M63.8898 13H64.6608V7.737H66.3368V7H62.2138V7.737H63.8898V13Z" stroke="white" stroke-width="0.2"
      stroke-miterlimit="10" />
    <path
      d="M76.1088 7V13H76.8778V9.262L76.8448 8.106H76.8778L79.9288 13H80.7338V7H79.9628V10.512L79.9958 11.668H79.9628L77.0468 7H76.1088Z"
      stroke="white" stroke-width="0.2" stroke-miterlimit="10" />
    <path
      d="M10.9688 7.53798C10.6778 7.84598 10.5058 8.32398 10.5058 8.94298V31.059C10.5058 31.679 10.6778 32.156 10.9688 32.464L11.0428 32.536L23.4318 20.147V20.001V19.855L11.0428 7.46498L10.9688 7.53798Z"
      fill="url(#paint0_linear_16_379)" />
    <path
      d="M27.5618 24.279L23.4328 20.148V20.002V19.856L27.5628 15.726L27.6558 15.779L32.5488 18.559C33.9468 19.353 33.9468 20.652 32.5488 21.447L27.6558 24.227L27.5618 24.279Z"
      fill="url(#paint1_linear_16_379)" />
    <path d="M27.6558 24.225L23.4328 20.001L10.9688 32.464C11.4298 32.952 12.1898 33.012 13.0468 32.525L27.6558 24.225Z"
      fill="url(#paint2_linear_16_379)" />
    <path
      d="M27.6558 15.777L13.0478 7.47699C12.1908 6.98999 11.4308 7.05099 10.9698 7.53799L23.4328 20.001L27.6558 15.777Z"
      fill="url(#paint3_linear_16_379)" />
    <path opacity="0.2"
      d="M27.5628 24.132L13.0478 32.379C12.2358 32.84 11.5098 32.81 11.0438 32.39L10.9688 32.465L11.0428 32.537C11.5088 32.957 12.2348 32.988 13.0468 32.526L27.6548 24.226L27.5628 24.132Z"
      fill="black" />
    <path opacity="0.12"
      d="M10.9688 32.318C10.6778 32.01 10.5058 31.532 10.5058 30.913V31.059C10.5058 31.678 10.6778 32.156 10.9688 32.464L11.0438 32.389L10.9688 32.318Z"
      fill="black" />
    <path opacity="0.12"
      d="M32.5488 21.299L27.5628 24.132L27.6558 24.225L32.5488 21.445C33.2478 21.048 33.5968 20.525 33.5968 20.002C33.5378 20.475 33.1818 20.939 32.5488 21.299Z"
      fill="black" />
    <path opacity="0.25"
      d="M13.0468 7.62299L32.5478 18.703C33.1818 19.063 33.5368 19.527 33.5958 20.001C33.5958 19.478 33.2468 18.954 32.5478 18.557L13.0468 7.47699C11.6488 6.68299 10.5058 7.34199 10.5058 8.94299V9.08999C10.5058 7.48899 11.6498 6.82899 13.0468 7.62299Z"
      fill="white" />
  </g>
  <defs>
    <linearGradient id="paint0_linear_16_379" x1="22.3334" y1="8.70978" x2="5.551" y2="25.4922"
      gradientUnits="userSpaceOnUse">
      <stop stop-color="#00A0FF" />
      <stop offset="0.0066" stop-color="#00A1FF" />
      <stop offset="0.2601" stop-color="#00BEFF" />
      <stop offset="0.5122" stop-color="#00D2FF" />
      <stop offset="0.7604" stop-color="#00DFFF" />
      <stop offset="1" stop-color="#00E3FF" />
    </linearGradient>
    <linearGradient id="paint1_linear_16_379" x1="34.3681" y1="20.0015" x2="10.1712" y2="20.0015"
      gradientUnits="userSpaceOnUse">
      <stop stop-color="#FFE000" />
      <stop offset="0.4087" stop-color="#FFBD00" />
      <stop offset="0.7754" stop-color="#FFA500" />
      <stop offset="1" stop-color="#FF9C00" />
    </linearGradient>
    <linearGradient id="paint2_linear_16_379" x1="25.3607" y1="22.2962" x2="2.60241" y2="45.0545"
      gradientUnits="userSpaceOnUse">
      <stop stop-color="#FF3A44" />
      <stop offset="1" stop-color="#C31162" />
    </linearGradient>
    <linearGradient id="paint3_linear_16_379" x1="7.83105" y1="0.176287" x2="17.9936" y2="10.3388"
      gradientUnits="userSpaceOnUse">
      <stop stop-color="#32A071" />
      <stop offset="0.0685" stop-color="#2DA771" />
      <stop offset="0.4762" stop-color="#15CF74" />
      <stop offset="0.8009" stop-color="#06E775" />
      <stop offset="1" stop-color="#00F076" />
    </linearGradient>
    <clipPath id="clip0_16_379">
      <rect width="135" height="40" fill="white" transform="translate(0.533813)" />
    </clipPath>
  </defs>
</svg>