<svg width="128" height="107" viewBox="0 0 128 107" fill="none" xmlns="http://www.w3.org/2000/svg">
<path d="M12.8822 16.7679V5.35483H24.288V16.7679H12.8822ZM36.0604 16.7679V5.35483H47.476V16.7679H36.0604ZM60.1898 16.7679V5.35483H71.6055V16.7679H60.1898ZM83.368 16.7679V5.35483H94.7737V16.7679H83.368ZM105.575 16.7679V5.35483H116.991V16.7679H105.575ZM13.7146 82.718V23.6198H114.949V82.718H13.7146ZM12.8822 100.983V89.5599H24.288V100.983H12.8822ZM36.0604 100.983V89.5599H47.476V100.983H36.0604ZM60.1898 100.983V89.5599H71.6055V100.983H60.1898ZM83.368 100.983V89.5599H94.7737V100.983H83.368ZM105.575 100.983V89.5599H116.991V100.983H105.575ZM125.126 0.0102112H2.87373C2.17984 -0.0508135 1.48976 0.163405 0.952214 0.6067C0.414671 1.05 0.0727004 1.68688 0 2.38009L0 103.63C0.0751689 104.323 0.417446 104.96 0.954079 105.404C1.49071 105.848 2.17939 106.066 2.87373 106.01H125.126C125.821 106.066 126.509 105.848 127.046 105.404C127.583 104.96 127.925 104.323 128 103.63V2.38009C127.927 1.68688 127.585 1.05 127.048 0.6067C126.51 0.163405 125.82 -0.0508135 125.126 0.0102112V0.0102112Z" fill="#3C3C3B"/>
<path d="M51.8658 31.6219C52.0259 31.5509 52.2019 31.5235 52.376 31.5427C52.5501 31.5618 52.7159 31.6268 52.8568 31.731L84.993 52.2369C85.1019 52.3326 85.1898 52.4499 85.2512 52.5813C85.3126 52.7127 85.3462 52.8554 85.3497 53.0004C85.35 53.1461 85.3181 53.29 85.2565 53.422C85.1948 53.5539 85.1049 53.6707 84.993 53.7639L52.8964 74.2698C52.7208 74.4062 52.5044 74.4796 52.282 74.4781L51.8658 74.3789C51.7054 74.298 51.5699 74.1751 51.4739 74.0231C51.3779 73.8712 51.325 73.6959 51.3208 73.5162V32.4945C51.3232 32.3131 51.3752 32.1358 51.4713 31.9819C51.5674 31.8281 51.7039 31.7036 51.8658 31.6219V31.6219Z" fill="url(#paint0_linear_8_11)"/>
<defs>
<linearGradient id="paint0_linear_8_11" x1="51.3208" y1="53.0004" x2="85.3498" y2="53.0004" gradientUnits="userSpaceOnUse">
<stop stop-color="#069AD7"/>
<stop offset="1" stop-color="#173F72"/>
</linearGradient>
</defs>
</svg>
