<svg width="108" height="104" viewBox="0 0 108 104" fill="none" xmlns="http://www.w3.org/2000/svg">
<path d="M37.5629 11.5811C46.3653 7.39831 56.3047 6.24684 65.8303 8.30639C75.3559 10.3659 83.9318 15.5207 90.22 22.9663C96.5083 30.4119 100.155 39.7296 100.591 49.4655C101.028 59.2014 98.2289 68.8079 92.6319 76.7862C87.0349 84.7644 78.9544 90.6656 69.6512 93.5689C60.3481 96.4722 50.3455 96.2144 41.2042 92.8357C32.0629 89.457 24.2971 83.1474 19.1185 74.8915C13.9399 66.6355 11.6398 56.8976 12.5771 47.1971L5.27696 46.4778C4.52863 53.2517 5.13342 60.1067 7.05623 66.6448C8.97904 73.183 12.1815 79.274 16.4778 84.5643C20.7741 89.8546 26.0785 94.2386 32.083 97.462C38.0876 100.685 44.6727 102.684 51.4559 103.341C58.2392 103.998 65.0855 103.302 71.5972 101.291C78.109 99.2809 84.1565 95.997 89.3887 91.6301C94.6208 87.2632 98.9333 81.9005 102.076 75.8532C105.218 69.8059 107.128 63.1946 107.694 56.4031C107.98 53.4072 108.012 50.3925 107.788 47.3913C107.125 39.0812 104.455 31.0562 100.006 24.0063C95.5566 16.9563 89.4619 11.0922 82.2457 6.91816C75.0295 2.74408 66.9076 0.384837 58.5781 0.043243C50.2487 -0.298351 41.9608 1.38792 34.4271 4.9571L37.5629 11.5811Z" fill="url(#paint0_linear_8_16)"/>
<path d="M28.8457 29.1014C23.1041 36.39 20.4583 45.6439 21.4793 54.8661C22.5003 64.0883 27.1063 72.5393 34.3032 78.3955C41.5002 84.2517 50.7111 87.0435 59.9482 86.1684C69.1854 85.2934 77.7082 80.8216 83.6775 73.7182C89.6468 66.6148 92.5839 57.4492 91.855 48.1993C91.1262 38.9495 86.7898 30.357 79.7816 24.2762C72.7735 18.1953 63.6555 15.1136 54.3953 15.6961C45.1351 16.2786 36.4751 20.4785 30.2842 27.3896L23.732 22.1249L25.9976 14.2854L7.72933 2.3103L5.93127 8.62508L0.350098 10.7827L14.6411 27.5406L22.4015 23.9445L28.8457 29.1014ZM54.2918 23.2972C60.7717 22.7883 67.2291 24.5271 72.5773 28.2209C77.9255 31.9147 81.838 37.3381 83.6565 43.5784C85.4749 49.8186 85.0883 56.4948 82.5617 62.4834C80.035 68.4721 75.5225 73.4075 69.7837 76.4593C64.0448 79.511 57.4299 80.4927 51.0521 79.2392C44.6743 77.9857 38.923 74.5735 34.766 69.5768C30.609 64.5801 28.3001 58.304 28.2278 51.8046C28.1556 45.3052 30.3244 38.9792 34.3693 33.8914L39.9793 38.7246C36.69 43.073 35.2282 48.5336 35.905 53.9438C36.5819 59.3539 39.344 64.2861 43.6031 67.6901C47.8623 71.0941 53.282 72.701 58.7083 72.1687C64.1346 71.6363 69.1386 69.0067 72.655 64.8398C76.1714 60.6729 77.9222 55.2979 77.5347 49.8594C77.1472 44.4209 74.6519 39.3485 70.5802 35.7223C66.5086 32.096 61.1822 30.2025 55.7353 30.4449C50.2883 30.6873 45.1512 33.0465 41.4177 37.02L35.8078 32.1796C40.6297 26.9954 47.2313 23.823 54.2918 23.2972V23.2972ZM55.4426 37.991C58.512 37.7521 61.5709 38.569 64.1126 40.3063C66.6543 42.0436 68.5262 44.5971 69.4182 47.5437C70.3102 50.4904 70.1688 53.6533 69.0175 56.5086C67.8661 59.3639 65.7738 61.7402 63.0873 63.2438C60.4007 64.7474 57.2811 65.2881 54.2453 64.7763C51.2094 64.2645 48.4395 62.731 46.3943 60.4297C44.3492 58.1284 43.1516 55.1975 43 52.1226C42.8483 49.0476 43.7517 46.0131 45.5605 43.5218L51.5012 48.6426C51.0056 49.5464 50.7619 50.5667 50.7955 51.5969C50.8291 52.6271 51.1389 53.6293 51.6923 54.4988C52.2458 55.3683 53.0227 56.0732 53.9418 56.5398C54.8609 57.0064 55.8884 57.2175 56.917 57.1511C58.4069 57.0067 59.7807 56.2838 60.7435 55.1376C61.7063 53.9915 62.1812 52.5135 62.0663 51.0211C61.9515 49.5286 61.2559 48.1408 60.1291 47.1555C59.0022 46.1702 57.534 45.6661 56.0395 45.7514C54.9228 45.8327 53.8558 46.246 52.9756 46.9381L47.0349 41.8172C49.2967 39.5876 52.2757 38.2319 55.4426 37.991V37.991Z" fill="#3C3C3B"/>
<defs>
<linearGradient id="paint0_linear_8_16" x1="5.02523" y1="51.4477" x2="107.939" y2="51.4477" gradientUnits="userSpaceOnUse">
<stop stop-color="#069AD7"/>
<stop offset="1" stop-color="#173F72"/>
</linearGradient>
</defs>
</svg>
