<svg xmlns="http://www.w3.org/2000/svg" viewBox="0 0 528.34 114.43">
    <defs>
        <style>.cls-1{fill:#fff;}</style>
    </defs>
    <g id="Camada_2" data-name="Camada 2">
        <g id="Camada_1-2" data-name="Camada 1">
            <path class="cls-1" d="M47,10.17c-5.66,5.6-18.53,18.27-28.57,28.17S.09,56.47,0,56.64s.78,1.23,12,12.42L24.1,81.18,34.72,70.55,45.34,59.93l2.9-10.27C54,29.21,56.64,20.34,57,20c.13-.14.34.43,1.33,3.42C60.13,29,61.68,34.22,66.1,50l2.68,9.5L79.47,70.08c5.89,5.84,10.73,10.63,10.79,10.66s5.47-5.37,12.06-11.95l12-12L97.94,40.44c-9-9-21.82-21.77-28.5-28.4L57.3,0Z"/>
            <path class="cls-1" d="M56.22,49.31c-1,.88-4.13,4-7.42,7.28l-2.93,3,5.74,5.75,5.75,5.75,5.57-5.57,5.58-5.59-4-4A90.91,90.91,0,0,0,57,48.74,3.54,3.54,0,0,0,56.22,49.31Z"/>
            <path class="cls-1" d="M51.59,76.92C48.66,79.78,43.89,84.5,41,87.43l-5.31,5.31,10.86,10.85,10.84,10.84L68,103.76,78.71,93.08,73.3,87.66C66.92,81.26,57.18,71.73,57,71.73S54.51,74.07,51.59,76.92Z"/>
            <path class="cls-1" d="M144.11,63.69V22h22.2c18.72,0,27.34,6.4,27.34,20.46,0,14.53-8.32,21.23-26.21,21.23ZM154.4,55.2h12.8c11.43,0,16.16-3.71,16.16-12.74,0-8.44-5-12-16.87-12H154.4Z"/>
            <path class="cls-1" d="M198.43,42.64c0-14.78,8.38-21.66,26.15-21.66s26.2,6.82,26.2,21.66c0,15.13-8.26,22.07-26.2,22.07C206.81,64.71,198.43,57.77,198.43,42.64Zm42.06,0c0-4.79-1.26-8.2-3.71-10.18s-6.52-3.05-12.2-3.05-9.75,1-12.21,3.05-3.65,5.45-3.65,10.18c0,9.75,4.61,13.58,15.86,13.58S240.49,52.39,240.49,42.64Z"/>
            <path class="cls-1" d="M321.32,22V63.69H311V30.43h-1.8L295.11,63.69H283.45L269.39,30.43h-1.8V63.69H257.3V22h18.91l13.1,31.64,13-31.64Z"/>
            <path class="cls-1" d="M337.08,63.69V22h19.14q20.91,0,20.88,15.26,0,15.61-20.88,15.62h-8.85V63.69Zm10.29-19.32h8.91c7.36,0,10.53-2.15,10.53-7.12,0-4.73-3.17-6.82-10.53-6.82h-8.91Z"/>
            <path class="cls-1" d="M383.2,63.69V22h10.29v41.7Z"/>
            <path class="cls-1" d="M435,63.69l-9.27-17.35h-6l-9.27,17.35H399.18l11.54-21.47L400.13,22h11.13l8.2,15.92h6.46L434.12,22h11.06L434.59,42.28l11.49,21.41Z"/>
            <path class="cls-1" d="M451.88,63.69V22h35.54v8.08H462.17v8.2h23.22v8.07H462.17v9.28h25.67v8.07Z"/>
            <path class="cls-1" d="M495.2,63.69V22h10.29V55.26h22.85v8.43Z"/>
            <path class="cls-1" d="M151.42,85.89H159v.39c0,4.9-2.47,7.18-7.35,7.18-5.09,0-7.54-2.54-7.54-7.8s2.47-7.74,7.43-7.74c4.15,0,6.51,1.72,7.12,5.16h-1.85c-.52-2.32-2.13-3.4-5.2-3.4-3.8,0-5.57,1.74-5.57,6s1.66,6,5.61,6c3.42,0,5.2-1.35,5.37-4h-5.6Z"/>
            <path class="cls-1" d="M183.76,93.13h-2.54L176,87.89h-1.35v5.24h-1.93V78.24h4.64q5.57,0,5.56,4.65c0,3-1.48,4.61-4.42,4.94ZM174.69,80v6.12h2.71c2.49,0,3.61-.92,3.61-3.24,0-2-1.12-2.88-3.61-2.88Z"/>
            <path class="cls-1" d="M196.14,85.68c0-5.27,2.42-7.76,7.5-7.76s7.52,2.49,7.52,7.76-2.43,7.78-7.52,7.78S196.14,90.94,196.14,85.68Zm7.5-6c-3.89,0-5.57,1.72-5.57,6s1.68,6,5.57,6,5.56-1.8,5.56-6S207.52,79.68,203.64,79.68Z"/>
            <path class="cls-1" d="M241.82,78.24h1.94l-2.65,14.89h-4.23l-3-13.12h-.49L230.3,93.13h-4.21l-2.66-14.89h1.95l2.33,13.18h1l3.07-13.18h1.81v0l0,0h1.74l3,13.18h1.05Z"/>
            <path class="cls-1" d="M260.69,93.13V80h-4.27V78.24H266.9V80h-4.25V93.13Z"/>
            <path class="cls-1" d="M288.73,78.24h1.94V93.13h-1.94V86.26h-6.81v6.87H280V78.24h1.93V84.5h6.81Z"/>
            <path class="cls-1" d="M338.4,78.24V93.13h-2V80h-.64l-5.05,13.12h-2.26L323.44,80h-.64V93.13h-1.94V78.24h3.91l4.84,12.9,4.85-12.9Z"/>
            <path class="cls-1" d="M361.93,93.13l-1.1-4.19h-6.42l-1.1,4.19h-2l3.93-14.89H360l4,14.89Zm-7.05-5.95h5.48L358.49,80h-1.72Z"/>
            <path class="cls-1" d="M387.87,93.13h-2.54l-5.18-5.24H378.8v5.24h-1.94V78.24h4.65q5.57,0,5.56,4.65,0,4.44-4.43,4.94ZM378.8,80v6.12h2.71c2.49,0,3.61-.92,3.61-3.24,0-2-1.12-2.88-3.61-2.88Z"/>
            <path class="cls-1" d="M409.7,93.13l-3.63-6.87h-3.25v6.87h-1.93V78.24h1.93V84.5h3.29l3.35-6.26h2.11l-3.83,7.18,4.09,7.71Z"/>
            <path class="cls-1" d="M424.89,93.13V78.24h9V80h-7.09V84.5h6.53v1.76h-6.53v5.11H434v1.76Z"/>
            <path class="cls-1" d="M450.79,93.13V80h-4.28V78.24H457V80h-4.26V93.13Z"/>
            <path class="cls-1" d="M470.09,93.13V78.24H472V93.13Z"/>
            <path class="cls-1" d="M497.91,78.24h2V93.13h-3.63L488.78,80h-.58V93.13h-1.93V78.24h3.61l7.45,13.18h.58Z"/>
            <path class="cls-1" d="M520.76,85.89h7.58v.39c0,4.9-2.47,7.18-7.35,7.18-5.09,0-7.54-2.54-7.54-7.8s2.47-7.74,7.44-7.74q6.21,0,7.11,5.16h-1.85c-.51-2.32-2.13-3.4-5.2-3.4-3.8,0-5.56,1.74-5.56,6s1.65,6,5.6,6c3.42,0,5.2-1.35,5.38-4h-5.61Z"/>
        </g>
    </g>
</svg>