<svg width="247" height="247" viewBox="0 0 247 247" fill="none" xmlns="http://www.w3.org/2000/svg">
<path d="M123.29 246.58C191.381 246.58 246.58 191.381 246.58 123.29C246.58 55.1988 191.381 0 123.29 0C55.1988 0 0 55.1988 0 123.29C0 191.381 55.1988 246.58 123.29 246.58Z" fill="#054DFC"/>
<path d="M171.384 136.25L151.743 155.902L95.809 155.997L76.2164 136.429L171.384 136.25Z" fill="white"/>
<path d="M56.6 98.7489V114.674H76.2164V98.7489H56.6Z" fill="white"/>
<path d="M191 83.7795V152.604L171.384 136.56V98.5815L191 83.7795Z" fill="white"/>
<path d="M171.384 98.5816L76.2164 98.7369V79.1682L151.743 79.0129L171.384 98.5816Z" fill="white"/>
<path d="M117.029 145.537L110.093 152.472L134.667 177.046L141.603 170.111L117.029 145.537Z" fill="white"/>
<path d="M91.4496 170.111L98.385 177.046L121.464 153.967L114.528 147.032L91.4496 170.111Z" fill="white"/>
<path d="M123.764 121.459H84.6149V131.315H123.764V121.459Z" fill="white"/>
</svg>
