<svg width="167" height="78" viewBox="0 0 167 78" fill="none" xmlns="http://www.w3.org/2000/svg">
<path d="M61 17H50V23H61V17Z" fill="#161724"/>
<path d="M111 11H100V17H111V11Z" fill="#161724"/>
<path d="M111 11H100V17H111V11Z" fill="#161724"/>
<path d="M162 50H156V56H162V50Z" fill="#161724"/>
<path d="M151 22H145V28H151V22Z" fill="#161724"/>
<path d="M162 22H156V28H162V22Z" fill="#161724"/>
<path d="M162 11H156V17H162V11Z" fill="#161724"/>
<path d="M151 11H145V17H151V11Z" fill="#161724"/>
<path d="M156 5H150V11H156V5Z" fill="#161724"/>
<path d="M134 22H128V28H134V22Z" fill="#161724"/>
<path d="M128 16H122V22H128V16Z" fill="#161724"/>
<path d="M139 17H133V28H139V17Z" fill="#161724"/>
<path d="M134 11H128V17H134V11Z" fill="#161724"/>
<path d="M106 28H100V34H106V28Z" fill="#161724"/>
<path d="M123 22H111V28H123V22Z" fill="#161724"/>
<path d="M117 26H111V37H117V26Z" fill="#161724"/>
<path d="M45 39H39V51H45V39Z" fill="#161724"/>
<path d="M123 33H106V39H123V33Z" fill="#161724"/>
<path d="M128 28H122V34H128V28Z" fill="#161724"/>
<path d="M167 28H145V34H167V28Z" fill="#161724"/>
<path d="M106 39H100V51H106V39Z" fill="#161724"/>
<path d="M100 33H81V39H100V33Z" fill="#161724"/>
<path d="M39 28H33V39H39V28Z" fill="#161724"/>
<path d="M28 33H16V39H28V33Z" fill="#161724"/>
<path d="M33 17H16V23H33V17Z" fill="#161724"/>
<path d="M50 22H44V28H50V22Z" fill="#161724"/>
<path d="M67 28H55V34H67V28Z" fill="#161724"/>
<path d="M78 22H66V28H78V22Z" fill="#161724"/>
<path d="M11 16H0V23H11V16Z" fill="#161724"/>
<path d="M11 64H0V75H11V64Z" fill="#161724"/>
<path d="M28 39H0V45H28V39Z" fill="#161724"/>
<path d="M162 33H128V39H162V33Z" fill="#161724"/>
<path d="M156 44H134V50H156V44Z" fill="#161724"/>
<path d="M72 39H50V45H72V39Z" fill="#161724"/>
<path d="M117 50H89V56H117V50Z" fill="#161724"/>
<path d="M45 50H16V56H45V50Z" fill="#161724"/>
<path d="M84 56V28H72V56H84Z" fill="#161724"/>
<path d="M73 55H33V61H73V55Z" fill="#161724"/>
<path d="M139 55H100V61H139V55Z" fill="#161724"/>
<path d="M167 72H0V78H167V72Z" fill="#161724"/>
<path d="M167 64H16V74H167V64Z" fill="#161724"/>
<path d="M145 61H0V67H145V61Z" fill="#161724"/>
<path d="M17 0H11V6H17V0Z" fill="#161724"/>
<path d="M56 0H50V6H56V0Z" fill="#161724"/>
<path d="M89 11H83V17H89V11Z" fill="#161724"/>
<path d="M123 5H117V11H123V5Z" fill="#161724"/>
<path d="M45 5H39V11H45V5Z" fill="#161724"/>
<path d="M100 5H94V11H100V5Z" fill="#161724"/>
<path d="M145 0H139V6H145V0Z" fill="#161724"/>
<path d="M72 5H66V11H72V5Z" fill="#161724"/>
<path d="M11 5H5V11H11V5Z" fill="#161724"/>
<path d="M167 61H150V69H167V61Z" fill="#161724"/>
<path d="M95 55H78V62H95V55Z" fill="#161724"/>
<path d="M95 44H89V50H95V44Z" fill="#161724"/>
<path d="M117 44H111V50H117V44Z" fill="#161724"/>
<path d="M112 39H94V45H112V39Z" fill="#161724"/>
<path d="M61 50H50V56H61V50Z" fill="#161724"/>
<path d="M67 33H50V39H67V33Z" fill="#161724"/>
<path d="M100 22H83V28H100V22Z" fill="#161724"/>
<path d="M39 11H27V17H39V11Z" fill="#161724"/>
<path d="M23 22H16V28H23V22Z" fill="#161724"/>
<path d="M33 22H27V28H33V22Z" fill="#161724"/>
<path d="M33 45H27V51H33V45Z" fill="#161724"/>
<path d="M56 44H50V50H56V44Z" fill="#161724"/>
<path d="M67 44H61V50H67V44Z" fill="#161724"/>
<path d="M95 27H89V33H95V27Z" fill="#161724"/>
<path d="M28 55H11V61H28V55Z" fill="#161724"/>
<path d="M11 50H5V56H11V50Z" fill="#161724"/>
<path d="M11 28H5V34H11V28Z" fill="#161724"/>
<path d="M6 33H0V39H6V33Z" fill="#161724"/>
<path d="M22 45H5V51H22V45Z" fill="#161724"/>
<path d="M6 55H0V61H6V55Z" fill="#161724"/>
<path d="M156 56H144V62H156V56Z" fill="#161724"/>
<path d="M167 55H161V61H167V55Z" fill="#161724"/>
<path d="M167 44H161V50H167V44Z" fill="#161724"/>
<path d="M162 39H156V45H162V39Z" fill="#161724"/>
<path d="M151 50H122V56H151V50Z" fill="#161724"/>
<path d="M139 39H128V45H139V39Z" fill="#161724"/>
</svg>
